<?xml version="1.0" encoding="UTF-8" standalone="no"?>
<!-- Generator: Adobe Illustrator 17.0.0, SVG Export Plug-In . SVG Version: 6.00 Build 0)  -->

<svg
   xmlns:dc="http://purl.org/dc/elements/1.1/"
   xmlns:cc="http://creativecommons.org/ns#"
   xmlns:rdf="http://www.w3.org/1999/02/22-rdf-syntax-ns#"
   xmlns:svg="http://www.w3.org/2000/svg"
   xmlns="http://www.w3.org/2000/svg"
   xmlns:sodipodi="http://sodipodi.sourceforge.net/DTD/sodipodi-0.dtd"
   xmlns:inkscape="http://www.inkscape.org/namespaces/inkscape"
   version="1.1"
   x="0px"
   y="0px"
   width="19.461"
   height="25.618999"
   viewBox="0 0 19.461 25.618999"
   enable-background="new 0 0 64 32"
   xml:space="preserve"
   id="svg2"
   inkscape:version="0.91 r"
   sodipodi:docname="protocols.svg"><metadata
     id="metadata46"><rdf:RDF><cc:Work
         rdf:about=""><dc:format>image/svg+xml</dc:format><dc:type
           rdf:resource="http://purl.org/dc/dcmitype/StillImage" /><dc:title></dc:title></cc:Work></rdf:RDF></metadata><defs
     id="defs44" /><sodipodi:namedview
     pagecolor="#ffffff"
     bordercolor="#666666"
     borderopacity="1"
     objecttolerance="10"
     gridtolerance="10"
     guidetolerance="10"
     inkscape:pageopacity="0"
     inkscape:pageshadow="2"
     inkscape:window-width="1920"
     inkscape:window-height="1025"
     id="namedview42"
     showgrid="false"
     fit-margin-top="0"
     fit-margin-left="0"
     fit-margin-right="0"
     fit-margin-bottom="0"
     inkscape:zoom="5.59375"
     inkscape:cx="-38.958536"
     inkscape:cy="13.261999"
     inkscape:window-x="0"
     inkscape:window-y="30"
     inkscape:window-maximized="1"
     inkscape:current-layer="svg2" /><g
     id="Ebene_1"
     transform="translate(-31.181999,-3.643)" /><g
     id="Ebene_2"
     transform="translate(-31.181999,-3.643)"><rect
       x="32.181999"
       y="7.1529999"
       stroke-miterlimit="10"
       width="17.461"
       height="21.108999"
       id="rect6"
       style="fill:none;stroke:#000000;stroke-width:2;stroke-miterlimit:10" /><path
       stroke-miterlimit="10"
       d="m 44.577,6.107 c 0,0.748 -0.59,1.355 -1.317,1.355 l -4.695,0 c -0.727,0 -1.317,-0.607 -1.317,-1.355 l 0,0 c 0,-0.748 0.59,-1.355 1.317,-1.355 l 4.695,0 c 0.727,0 1.317,0.607 1.317,1.355 l 0,0 z"
       id="path8"
       inkscape:connector-curvature="0"
       style="fill:none;stroke:#000000;stroke-width:2;stroke-miterlimit:10" /><line
       stroke-miterlimit="10"
       x1="31.186001"
       y1="6.1479998"
       x2="50.639"
       y2="6.1479998"
       id="line10"
       style="fill:none;stroke:#000000;stroke-width:2;stroke-miterlimit:10" /><line
       stroke-miterlimit="10"
       x1="31.186001"
       y1="6.1479998"
       x2="50.639"
       y2="6.1479998"
       id="line12"
       style="fill:none;stroke:#000000;stroke-width:2;stroke-miterlimit:10" /><line
       stroke-miterlimit="10"
       x1="31.186001"
       y1="6.1479998"
       x2="50.639"
       y2="6.1479998"
       id="line14"
       style="fill:none;stroke:#000000;stroke-width:2;stroke-miterlimit:10" /><path
       stroke-miterlimit="10"
       d="m 45.355,5.177 c 0,0.709 -0.715,1.284 -1.596,1.284 l -5.692,0 c -0.882,0 -1.596,-0.575 -1.596,-1.284 l 0,0 c 0,-0.709 0.715,-1.284 1.596,-1.284 l 5.692,0 c 0.881,0 1.596,0.575 1.596,1.284 l 0,0 z"
       id="path16"
       inkscape:connector-curvature="0"
       style="fill:none;stroke:#ffffff;stroke-width:0.5;stroke-miterlimit:10" /><circle
       cx="40.912998"
       cy="5.177"
       r="0.414"
       id="circle18"
       style="fill:#f1f2f2" /><rect
       x="33.188"
       y="8.1560001"
       width="15.438"
       height="19.094"
       id="rect20"
       style="fill:#ffffff" /><line
       stroke-miterlimit="10"
       x1="36.549"
       y1="10.542"
       x2="47.174"
       y2="10.542"
       id="line22"
       style="fill:none;stroke:#58595b;stroke-width:0.5;stroke-miterlimit:10" /><line
       stroke-miterlimit="10"
       x1="36.549"
       y1="12.04"
       x2="45.757"
       y2="12.04"
       id="line24"
       style="fill:none;stroke:#58595b;stroke-width:0.5;stroke-miterlimit:10" /><line
       stroke-miterlimit="10"
       x1="36.549"
       y1="15.539"
       x2="43.333"
       y2="15.539"
       id="line26"
       style="fill:none;stroke:#58595b;stroke-width:0.5;stroke-miterlimit:10" /><line
       stroke-miterlimit="10"
       x1="36.549"
       y1="20.038"
       x2="46.549"
       y2="20.038"
       id="line28"
       style="fill:none;stroke:#58595b;stroke-width:0.5;stroke-miterlimit:10" /><line
       stroke-miterlimit="10"
       x1="36.549"
       y1="23.537001"
       x2="47.174"
       y2="23.537001"
       id="line30"
       style="fill:none;stroke:#58595b;stroke-width:0.5;stroke-miterlimit:10" /><line
       stroke-miterlimit="10"
       x1="36.549"
       y1="24.992001"
       x2="47.174"
       y2="24.992001"
       id="line32"
       style="fill:none;stroke:#58595b;stroke-width:0.5;stroke-miterlimit:10" /><path
       stroke-miterlimit="10"
       d="m 34.948,24.432 c 0.344,0.047 0.844,0.891 0.844,0.891 0,0 0.922,-2.219 2.016,-2.156"
       id="path34"
       inkscape:connector-curvature="0"
       style="fill:none;stroke:#939598;stroke-width:0.5;stroke-miterlimit:10" /><path
       stroke-miterlimit="10"
       d="m 34.948,15.432 c 0.344,0.047 0.844,0.891 0.844,0.891 0,0 0.922,-2.219 2.016,-2.156"
       id="path36"
       inkscape:connector-curvature="0"
       style="fill:none;stroke:#939598;stroke-width:0.5;stroke-miterlimit:10" /><path
       stroke-miterlimit="10"
       d="m 34.948,11.64 c 0.344,0.047 0.844,0.891 0.844,0.891 0,0 0.922,-2.219 2.016,-2.156"
       id="path38"
       inkscape:connector-curvature="0"
       style="fill:none;stroke:#939598;stroke-width:0.5;stroke-miterlimit:10" /><path
       stroke-miterlimit="10"
       d="m 34.948,20.265 c 0.344,0.047 0.844,0.891 0.844,0.891 0,0 0.922,-2.219 2.016,-2.156"
       id="path40"
       inkscape:connector-curvature="0"
       style="fill:none;stroke:#939598;stroke-width:0.5;stroke-miterlimit:10" /></g></svg>